# xmcd
#
# Track frame offsets:
#	150
#	18372
#	32880
#	45217
#	58180
#	73980
#	92452
#	105170
#	119027
#	130100
#	147502
#	160595
#	173485
#
# Disc length: 2468 seconds
#
# Revision: 1
# Processed by: cddbd v1.5.2PL0 Copyright (c) Steve Scherf et al.
# Submitted via: audiograbber 1.83.01
#
DISCID=a709a20d
DTITLE=The Lawmen - The Other Side Of The Tracks
DYEAR=1900
DGENRE=Country
TTITLE0=She Keeps The Home Fires Burning
TTITLE1=New Patches
TTITLE2=Million Miles Apart
TTITLE3=My Girl
TTITLE4=Where Corn Don't Grow
TTITLE5=Georgia On My Mind
TTITLE6=If It Weren't For Country Music (I'd Go Crazy)
TTITLE7=Love Me Tender
TTITLE8=Sold (The Grundy Country Auction Incident)
TTITLE9=The Cowboy Song
TTITLE10=The Highway Patrol
TTITLE11=Turn To Him
TTITLE12=High Green
EXTD=
EXTT0=
EXTT1=
EXTT2=
EXTT3=
EXTT4=
EXTT5=
EXTT6=
EXTT7=
EXTT8=
EXTT9=
EXTT10=
EXTT11=
EXTT12=
PLAYORDER=
